# File created by Blade
# Date/Time:  Thu Jan 22 16:00:44 2015
# Frame Rate: 120.000 fps
#------------------------------------------------------
:FULLY-SPECIFIED
:DEGREES
1046
root 2.481815 37.141106 5.961371 -4.731180 -3.245562 2.093497
RightUpLeg 11.097621 0.974158 -4.336927
RightLeg -2.766285 -0.000000 0.000000
RightFoot -11.594779 -9.590172 16.514749
RightToeBase 13.634468 -0.000000 -0.000000
LeftUpLeg 8.393316 5.103860 3.532484
LeftLeg 1.120097 -0.000000 -0.000000
LeftFoot -7.636664 7.031159 -18.075218
LeftToeBase 8.706637 -0.000000 -0.000000
Spine 6.802218 -1.990317 -0.064100
RightShoulder 0.928069 -22.382847 -7.191210
RightArm 29.042253 -27.793582 60.380214
RightForeArm 12.605725 -0.000000 25.947378
RightHand 1.359450 0.000000 4.479063
RightHandThumb1 -24.326973 -0.000000 -32.862282
LeftShoulder -26.982027 33.441963 -5.664754
LeftArm 42.081636 -9.679231 -77.424999
LeftForeArm 16.368329 -0.000000 17.825112
LeftHand -21.915240 -0.000000 -1.638810
LeftHandThumb1 -26.253704 0.000000 33.147579
Head -4.541634 13.703153 -1.925784
1047
root 2.487888 37.144112 5.939582 -4.698756 -3.231538 2.088765
RightUpLeg 11.013624 1.018317 -4.327180
RightLeg -2.726481 -0.000000 0.000000
RightFoot -11.566414 -9.703033 16.432666
RightToeBase 13.434539 -0.000000 -0.000000
LeftUpLeg 8.326645 5.080840 3.518234
LeftLeg 1.113755 -0.000000 -0.000000
LeftFoot -7.607569 7.049907 -18.078272
LeftToeBase 8.705394 -0.000000 -0.000000
Spine 6.765200 -1.987376 -0.044780
RightShoulder 0.928948 -22.300053 -7.251332
RightArm 28.919382 -27.594844 60.597873
RightForeArm 12.464161 0.000000 26.063713
RightHand 1.433925 0.000000 4.295567
RightHandThumb1 -24.326973 -0.000000 -32.862282
LeftShoulder -27.001988 33.445952 -5.644657
LeftArm 42.120552 -9.930855 -77.628643
LeftForeArm 16.234988 -0.000000 18.238568
LeftHand -21.995043 -0.000000 -1.468777
LeftHandThumb1 -26.253704 0.000000 33.147579
Head -4.560084 13.621872 -1.958671
1048
root 2.495249 37.147093 5.918034 -4.665222 -3.209932 2.079477
RightUpLeg 10.923362 1.010263 -4.326396
RightLeg -2.672848 -0.000000 0.000000
RightFoot -11.602054 -9.697331 16.499759
RightToeBase 13.474172 -0.000000 -0.000000
LeftUpLeg 8.265295 5.009454 3.500497
LeftLeg 1.095215 -0.000000 -0.000000
LeftFoot -7.602238 7.113984 -18.093149
LeftToeBase 8.778972 -0.000000 -0.000000
Spine 6.731216 -1.970240 -0.010377
RightShoulder 0.931498 -22.203069 -7.303392
RightArm 28.767806 -27.411791 60.802745
RightForeArm 12.420406 -0.000000 26.198039
RightHand 1.464389 -0.000000 4.183661
RightHandThumb1 -24.326973 -0.000000 -32.862282
LeftShoulder -26.975839 33.410927 -5.608787
LeftArm 42.111255 -10.135156 -77.759039
LeftForeArm 16.072797 -0.000000 18.683196
LeftHand -22.034415 -0.000000 -1.378246
LeftHandThumb1 -26.253704 0.000000 33.147579
Head -4.598103 13.467808 -1.978135
1049
root 2.502501 37.149332 5.896154 -4.640476 -3.193809 2.081392
RightUpLeg 10.845388 1.007823 -4.333035
RightLeg -2.633207 -0.000000 0.000000
RightFoot -11.577187 -9.762864 16.454103
RightToeBase 13.379993 -0.000000 -0.000000
LeftUpLeg 8.216638 4.973367 3.478268
LeftLeg 1.066635 -0.000000 -0.000000
LeftFoot -7.569132 7.151871 -18.068738
LeftToeBase 8.730855 -0.000000 -0.000000
Spine 6.707469 -1.957161 0.007033
RightShoulder 0.955829 -22.136415 -7.359477
RightArm 28.656063 -27.233156 60.978660
RightForeArm 12.444152 -0.000000 26.346118
RightHand 1.563912 -0.000000 4.074693
RightHandThumb1 -24.326973 -0.000000 -32.862282
LeftShoulder -26.953217 33.374361 -5.576763
LeftArm 42.114230 -10.370027 -77.910614
LeftForeArm 16.073039 -0.000000 19.121902
LeftHand -21.938573 0.000000 -1.395400
LeftHandThumb1 -26.253704 0.000000 33.147579
Head -4.630306 13.372689 -2.006707
